name ./resultDataOpenSim/trcMotMarkerGrf/sub06/grf-05-08.mot
datacolumns 19
datarows 12
range 0.50400000 0.54800000
endheader

                time	     ground_force_vx	     ground_force_vy	     ground_force_vz	     ground_force_px	     ground_force_py	     ground_force_pz	   l_ground_force_vx	   l_ground_force_vy	   l_ground_force_vz	   l_ground_force_px	   l_ground_force_py	   l_ground_force_pz	     ground_torque_x	     ground_torque_y	     ground_torque_z	   l_ground_torque_x	   l_ground_torque_y	   l_ground_torque_z	
          0.50400000	         52.77294122	        351.18755456	        -17.29102405	         -0.85155691	          0.00000000	          0.12196373	          0.00000000	          0.00000000	          0.00000000	          0.00000000	          0.00000000	          0.00000000	          0.00000000	          0.13748027	          0.00000000	          0.00000000	          0.00000000	          0.00000000	
          0.50800000	         55.37405774	        366.38451442	        -17.52012321	         -0.85121024	          0.00000000	          0.12167410	          0.00000000	          0.00000000	          0.00000000	          0.00000000	          0.00000000	          0.00000000	          0.00000000	          0.20054027	          0.00000000	          0.00000000	          0.00000000	          0.00000000	
          0.51200000	         58.20803972	        382.39845633	        -17.77312494	         -0.85087465	          0.00000000	          0.12138414	          0.00000000	          0.00000000	          0.00000000	          0.00000000	          0.00000000	          0.00000000	          0.00000000	          0.27979185	          0.00000000	          0.00000000	          0.00000000	          0.00000000	
          0.51600000	         61.40207204	        399.09898669	        -18.15451370	         -0.85057243	          0.00000000	          0.12110403	          0.00000000	          0.00000000	          0.00000000	          0.00000000	          0.00000000	          0.00000000	          0.00000000	          0.36906319	          0.00000000	          0.00000000	          0.00000000	          0.00000000	
          0.52000000	         65.07713000	        416.32469460	        -18.73569928	         -0.85033362	          0.00000000	          0.12084663	          0.00000000	          0.00000000	          0.00000000	          0.00000000	          0.00000000	          0.00000000	          0.00000000	          0.46190876	          0.00000000	          0.00000000	          0.00000000	          0.00000000	
          0.52400000	         69.32819769	        433.90066931	        -19.54171919	         -0.85017828	          0.00000000	          0.12061854	          0.00000000	          0.00000000	          0.00000000	          0.00000000	          0.00000000	          0.00000000	          0.00000000	          0.55290862	          0.00000000	          0.00000000	          0.00000000	          0.00000000	
          0.52800000	         74.21117564	        451.66133270	        -20.54860866	         -0.85010151	          0.00000000	          0.12042318	          0.00000000	          0.00000000	          0.00000000	          0.00000000	          0.00000000	          0.00000000	          0.00000000	          0.63864389	          0.00000000	          0.00000000	          0.00000000	          0.00000000	
          0.53200000	         79.73544266	        469.46843828	        -21.69093235	         -0.85008188	          0.00000000	          0.12026674	          0.00000000	          0.00000000	          0.00000000	          0.00000000	          0.00000000	          0.00000000	          0.00000000	          0.71809773	          0.00000000	          0.00000000	          0.00000000	          0.00000000	
          0.53600000	         85.86378138	        487.22319908	        -22.87890709	         -0.85010078	          0.00000000	          0.12014623	          0.00000000	          0.00000000	          0.00000000	          0.00000000	          0.00000000	          0.00000000	          0.00000000	          0.79237092	          0.00000000	          0.00000000	          0.00000000	          0.00000000	
          0.54000000	         92.52010046	        504.86550317	        -24.02110635	         -0.85014371	          0.00000000	          0.12004457	          0.00000000	          0.00000000	          0.00000000	          0.00000000	          0.00000000	          0.00000000	          0.00000000	          0.86382457	          0.00000000	          0.00000000	          0.00000000	          0.00000000	
          0.54400000	         99.60417379	        522.35492679	        -25.04552745	         -0.85019444	          0.00000000	          0.11994259	          0.00000000	          0.00000000	          0.00000000	          0.00000000	          0.00000000	          0.00000000	          0.00000000	          0.93495608	          0.00000000	          0.00000000	          0.00000000	          0.00000000	
          0.54800000	        107.01200372	        539.65001870	        -25.91359703	         -0.85023739	          0.00000000	          0.11983106	          0.00000000	          0.00000000	          0.00000000	          0.00000000	          0.00000000	          0.00000000	          0.00000000	          1.00737754	          0.00000000	          0.00000000	          0.00000000	          0.00000000	
